<?xml version="1.0" encoding="UTF-8"?>
<svg version="1.1" xmlns="http://www.w3.org/2000/svg" width="512" height="512">
<path d="M0 0 C1.19375244 0.29003906 1.19375244 0.29003906 2.41162109 0.5859375 C38.70359847 9.74907849 69.14163226 32.34375866 88.375 64.5 C105.83043663 94.87969869 110.38345498 133.67235243 101.33203125 167.49609375 C91.65751958 201.94554535 68.72896455 229.42843789 37.9375 247.3125 C21.27718997 256.45421547 0.38988399 264.86177262 -19 264 C-21.02051327 271.3068876 -22.20912885 278.13742389 -22.5 285.6875 C-22.92982253 295.71780298 -24.95092928 304.76513061 -31 313 C-34.125 315.25 -34.125 315.25 -37 317 C-42.67029827 324.62557354 -41.72719282 334.95980151 -40.43359375 343.92578125 C-40.19183786 345.30592153 -39.94292796 346.68482455 -39.6875 348.0625 C-39.554646 348.77921875 -39.42179199 349.4959375 -39.28491211 350.234375 C-38.7201785 353.23924629 -38.14738889 356.24244747 -37.56347656 359.24365234 C-33.86662668 378.71289011 -34.00222792 398.75177442 -35.87890625 418.4453125 C-36.15974933 421.1220701 -36.15974933 421.1220701 -35 424 C-34.45846103 434.52852511 -35.32874191 444.61432473 -37 455 C-36.34 455 -35.68 455 -35 455 C-34.95758277 457.33294775 -34.95907063 459.66702567 -35 462 C-35.33 462.33 -35.66 462.66 -36 463 C-36.4481527 465.06839708 -36.89496466 467.13709157 -37.3359375 469.20703125 C-38.34672792 473.45829683 -39.67312125 477.60013681 -40.98828125 481.765625 C-42.16122016 485.51540653 -43.23595419 489.2892236 -44.2890625 493.07421875 C-45 495 -45 495 -47 497 C-48.32 497 -49.64 497 -51 497 C-53.67000399 492.99499401 -53.94232227 489.32711699 -54.625 484.625 C-54.7590625 483.79355469 -54.893125 482.96210938 -55.03125 482.10546875 C-55.76042575 477.21701502 -56.00284823 472.61423058 -55.83984375 467.671875 C-55.75914142 460.46069744 -57.65011527 454.40516556 -59.9375 447.625 C-62.79748611 438.72828071 -64.48799549 431.23222193 -64.60546875 421.8984375 C-65.18679859 417.62767766 -67.21845426 415.52545714 -70.28515625 412.640625 C-72.60376068 410.4223702 -73.7146227 407.90901179 -75 405 C-75.99 403.515 -75.99 403.515 -77 402 C-77.1953125 399.51953125 -77.1953125 399.51953125 -77.125 396.8125 C-77.10695313 395.91144531 -77.08890625 395.01039063 -77.0703125 394.08203125 C-77.04710937 393.39496094 -77.02390625 392.70789063 -77 392 C-76.36964844 391.7834375 -75.73929687 391.566875 -75.08984375 391.34375 C-72.75947405 390.15025991 -72.75947405 390.15025991 -72.12890625 387.46875 C-71.75139324 385.49006114 -71.37639143 383.5108915 -71.00390625 381.53125 C-70 379 -70 379 -67.40234375 377.65625 C-66.60957031 377.4396875 -65.81679687 377.223125 -65 377 C-65.48210937 376.19175781 -65.96421875 375.38351562 -66.4609375 374.55078125 C-67.09257812 373.48214844 -67.72421875 372.41351563 -68.375 371.3125 C-69.00148438 370.25675781 -69.62796875 369.20101563 -70.2734375 368.11328125 C-76.36945912 357.12113366 -73.37028294 345.28822778 -70.16796875 333.67578125 C-68.90569225 329.70319869 -67.28639776 326.26056236 -65.29296875 322.6171875 C-63.68416027 319.36068695 -62.50998846 316.0047695 -61.375 312.5625 C-61.16367432 311.92344727 -60.95234863 311.28439453 -60.73461914 310.62597656 C-59.18989155 305.83481672 -57.97126385 301.0057023 -56.96875 296.07421875 C-56 294 -56 294 -53.40625 292.70703125 C-52.6121875 292.47371094 -51.818125 292.24039062 -51 292 C-50.90203125 290.87722656 -50.8040625 289.75445312 -50.703125 288.59765625 C-49.90568989 280.34613659 -49.03305086 273.39392658 -45 266 C-45.70640625 265.90203125 -46.4128125 265.8040625 -47.140625 265.703125 C-50.76719094 265.17463047 -54.38468119 264.59980301 -58 264 C-58.74991211 263.87641113 -59.49982422 263.75282227 -60.27246094 263.62548828 C-91.90689473 258.26206702 -119.05331609 244.41458689 -142 222 C-142.84820312 221.21367187 -143.69640625 220.42734375 -144.5703125 219.6171875 C-166.91709316 198.3912485 -180.34806602 167.44314043 -181.203125 136.671875 C-181.73274813 96.70388208 -169.58467468 64.33716511 -141.609375 35.5390625 C-122.50056849 17.53518698 -98.56009825 5.57192453 -73 0 C-72.20045898 -0.17499023 -71.40091797 -0.34998047 -70.57714844 -0.53027344 C-48.37914894 -5.09646071 -22.06731218 -5.4150506 0 0 Z M-110 33.9375 C-136.17535069 63.77490293 -143.06195222 105.53728879 -140.7265625 144.01171875 C-138.22506132 178.05867071 -127.70006015 210.43671907 -102.50390625 234.37109375 C-89.00937228 245.73841054 -72.32204884 253.04162761 -55 256 C-54.32936523 256.11988281 -53.65873047 256.23976563 -52.96777344 256.36328125 C-44.51648541 257.99715165 -44.51648541 257.99715165 -36.7578125 255.40234375 C-33.53171987 250.85210862 -32.28202857 245.75679841 -30.890625 240.42578125 C-29.90594377 237.74382053 -28.71994035 236.29685408 -26.8125 234.1875 C-19.1133276 225.09592408 -14.11950689 209.47626643 -12.5625 197.6875 C-13.08623697 193.27314556 -14.67549353 190.33818397 -16.79296875 186.4765625 C-17.92463573 184.15463089 -18.35025524 182.46431894 -18.6875 179.9375 C-19.51502029 175.97328376 -21.55196331 174.41481571 -24.625 171.875 C-33.54089417 164.40005843 -39.79542717 152.10815871 -43 141 C-43.4408727 135.38656266 -42.24876018 131.45653719 -39.78125 126.51171875 C-39.4473526 125.81467834 -39.1134552 125.11763794 -38.7694397 124.3994751 C-37.69187541 122.15599754 -36.59620484 119.92191938 -35.5 117.6875 C-34.38980402 115.38942909 -33.28410458 113.0892323 -32.17874146 110.78883362 C-31.45315005 109.27948637 -30.72600947 107.77088283 -29.99728394 106.26304626 C-26.89684894 99.83607398 -23.9786837 93.33901069 -21.20898438 86.76245117 C-19.20695733 82.10347867 -19.20695733 82.10347867 -17 81 C-16.28330056 83.15009833 -15.56676619 85.3002496 -14.85107422 87.45068359 C-14.32202389 89.03540635 -13.79029086 90.61923935 -13.25439453 92.20166016 C-6.05793203 113.51745506 -2.21614259 134.95179474 -1.87109375 157.48046875 C-1.84877686 158.55780273 -1.82645996 159.63513672 -1.8034668 160.74511719 C-1.76872101 162.81971014 -1.75963615 164.89494775 -1.78051758 166.96972656 C-1.6805919 173.18520973 -0.74155362 176.06396198 3.6640625 180.45581055 C5 182 5 182 5.5859375 185.08984375 C5.51632813 186.02957031 5.44671875 186.96929687 5.375 187.9375 C5.29378906 189.37416016 5.29378906 189.37416016 5.2109375 190.83984375 C5.10652344 191.90912109 5.10652344 191.90912109 5 193 C4.01 193.33 3.02 193.66 2 194 C-0.38364611 198.32775463 -0.7163944 203.17914073 -1.375 208 C-3.16204912 219.9616813 -5.60084554 230.21402152 -13 240 C-16.7416457 245.30066474 -19 249.41111419 -19 256 C1.65530267 253.9165086 19.24851024 245.7267804 34 231 C34.75925781 230.25234375 35.51851562 229.5046875 36.30078125 228.734375 C61.09210926 202.87260969 66.52990528 164.20715701 65.97631836 129.8527832 C64.88603403 93.1010061 55.94980946 57.14607727 30 30 C29.37609375 29.30132812 28.7521875 28.60265625 28.109375 27.8828125 C14.72830303 13.43350369 -7.09791784 4.8003596 -26.61914062 3.87597656 C-59.3123761 2.99502112 -86.47284713 9.70527473 -110 33.9375 Z M-47 447 C-46 450 -46 450 -46 450 Z M-46 450 C-46 452.31 -46 454.62 -46 457 C-45.67 457 -45.34 457 -45 457 C-45 454.69 -45 452.38 -45 450 C-45.33 450 -45.66 450 -46 450 Z M-46 460 C-46 461.98 -46 463.96 -46 466 C-45.34 465.67 -44.68 465.34 -44 465 C-44.33 463.35 -44.66 461.7 -45 460 C-45.33 460 -45.66 460 -46 460 Z " fill="#000000" transform="translate(207,9)"/>
<path d="M0 0 C13.91043382 -0.04715333 27.82085489 -0.08206369 41.73135281 -0.10362434 C48.19324487 -0.11398172 54.65508257 -0.12799046 61.11694336 -0.15087891 C67.37398359 -0.17289859 73.63097213 -0.18462878 79.88804817 -0.18975449 C82.25377273 -0.19339877 84.61949504 -0.20051162 86.98519707 -0.21146011 C107.33830848 -0.30175274 128.08356032 -0.06494704 148.0625 4.25 C149.09068848 4.46543457 150.11887695 4.68086914 151.17822266 4.90283203 C167.63476636 8.51197212 185.83041125 14.46904225 195.5 29.30078125 C201.11866652 39.05363705 201.19813049 50.05984712 199.5390625 61.0546875 C196.32202637 72.90094995 189.10176801 81.74894168 178.671875 87.9921875 C167.38905519 94.12344271 155.16585345 98.02147169 143 102 C143.73412109 102.15033691 144.46824219 102.30067383 145.22460938 102.45556641 C171.50777887 107.89899678 200.27052509 114.33407605 216.33984375 138.05859375 C222.73750698 149.39374767 223.5666806 161.66196078 220.875 174.25 C216.59905801 189.27574006 206.04866686 199.13291666 192.94921875 206.78125 C170.4950864 218.8130765 144.83610713 222.1727478 119.69921875 222.1328125 C118.33274824 222.13348921 116.96627785 222.13446226 115.59980774 222.13571167 C112.74483079 222.13717688 109.88988535 222.13507596 107.03491211 222.13037109 C103.44600465 222.12473338 99.85717237 222.12801027 96.26826763 222.13382149 C81.67374923 222.15375008 67.121943 221.99757803 52.54370117 221.22705078 C46.79942467 220.92470093 41.06414777 220.84720467 35.3125 220.875 C34.27706055 220.87693359 33.24162109 220.87886719 32.17480469 220.88085938 C24.91364108 220.92111221 17.68619256 221.19696451 10.43945312 221.6418457 C3.95079587 222.03706133 -2.49832776 222.10505395 -9 222 C-9 220.68 -9 219.36 -9 218 C-8.35933594 217.79246094 -7.71867187 217.58492187 -7.05859375 217.37109375 C0.8493511 214.554404 6.08916741 210.70781923 10.3125 203.375 C14.79340473 193.04529612 14.29548604 181.17109385 14.2746582 170.11889648 C14.27901689 168.56996416 14.28420384 167.02103399 14.29014587 165.47210693 C14.30341907 161.30482381 14.30412799 157.13763201 14.30158257 152.97033191 C14.30050543 149.47643191 14.30541479 145.98254984 14.310188 142.48865372 C14.32124155 134.24120119 14.32174329 125.99379422 14.31567383 117.74633789 C14.30962947 109.26714898 14.32196633 100.7881258 14.3432439 92.30896515 C14.36090798 84.99816191 14.36685392 77.68741122 14.36360615 70.37658745 C14.36180171 66.02353365 14.36434563 61.67059827 14.37832069 57.31756401 C14.39097406 53.2240583 14.38888469 49.13080989 14.37590981 45.03730774 C14.37356119 43.54427055 14.37621641 42.0512148 14.38453293 40.55819893 C14.43509687 30.76722063 14.44402734 20.45767235 9.0625 11.9296875 C8.0415625 10.91261719 8.0415625 10.91261719 7 9.875 C6.319375 9.17117188 5.63875 8.46734375 4.9375 7.7421875 C2.91448764 5.83908867 2.91448764 5.83908867 0 4 C0 2.68 0 1.36 0 0 Z M42 7 C42 37.36 42 67.72 42 99 C52.168125 99.04125 62.33625 99.0825 72.8125 99.125 C77.56491089 99.15231201 77.56491089 99.15231201 82.41333008 99.18017578 C122.25189091 100.00053898 122.25189091 100.00053898 156.9375 82.875 C165.50053838 73.70586635 167.51451717 62.11682667 167.27734375 49.99609375 C166.71978118 38.49809942 162.03230242 29.52965708 153.75 21.8125 C126.02112308 -0.47934223 71.46937336 7 42 7 Z M42 107 C41.95352077 117.51874602 41.91805188 128.03746733 41.89637566 138.55629539 C41.88596862 143.44137594 41.87186604 148.32638587 41.84912109 153.21142578 C41.82728242 157.93172519 41.81540824 162.65195695 41.81024551 167.37230301 C41.80656946 169.16709074 41.79939139 170.96187506 41.78853989 172.75663376 C41.12096049 191.09202267 41.12096049 191.09202267 49 207 C59.14490141 214.16110688 72.05691706 214.15642998 83.9609375 214.203125 C85.10551422 214.20882507 86.25009094 214.21452515 87.42935181 214.22039795 C89.84823696 214.22981499 92.26713476 214.23636877 94.68603516 214.24023438 C98.32868839 214.2498774 101.97076162 214.28090747 105.61328125 214.3125 C129.6171984 214.42207648 155.41633296 212.95167345 173.875 195.5625 C184.37461516 184.21088743 186.92148348 170.82347748 186.375 155.75 C185.61542351 143.71071268 180.43696432 133.86750145 171.52734375 125.74609375 C148.88772602 108.1745495 116.60000457 106.79250974 89.16796875 106.90234375 C87.79649406 106.90421512 86.42501869 106.90563561 85.05354309 106.90663147 C81.49118108 106.91040015 77.92886162 106.92018019 74.36651611 106.93133545 C70.71244888 106.941673 67.0583746 106.94615519 63.40429688 106.95117188 C56.26951413 106.96180918 49.13475988 106.97881521 42 107 Z " fill="#000000" transform="translate(264,283)"/>
</svg>
